<svg width="24" height="24" viewBox="0 0 24 24" fill="none" xmlns="http://www.w3.org/2000/svg">
<path fill-rule="evenodd" clip-rule="evenodd" d="M3.5 6.14781V6.73609C3.5 7.79522 3.94953 8.80458 4.73678 9.5131L5.5 10.2C6.77306 11.3458 7.5 12.978 7.5 14.6907V19.5C7.5 20.3284 8.17157 21 9 21C9.82843 21 10.5 20.3284 10.5 19.5V7.85913C10.5 7.03335 10.2895 6.22119 9.88851 5.49933L9.3995 4.6191C8.84432 3.61978 7.791 3 6.64781 3C4.90932 3 3.5 4.40932 3.5 6.14781ZM20.5 6.14781V6.73609C20.5 7.79522 20.0505 8.80458 19.2632 9.5131L18.5 10.2C17.2269 11.3458 16.5 12.978 16.5 14.6907V19.5C16.5 20.3284 15.8284 21 15 21C14.1716 21 13.5 20.3284 13.5 19.5V7.85913C13.5 7.03335 13.7105 6.22119 14.1115 5.49933L14.6005 4.6191C15.1557 3.61978 16.209 3 17.3522 3C19.0907 3 20.5 4.40932 20.5 6.14781Z" fill="black"/>
</svg>
