<svg width="24" height="24" viewBox="0 0 24 24" fill="none" xmlns="http://www.w3.org/2000/svg">
<path d="M20.778 4.2218C20.778 3.66952 20.3303 3.2218 19.778 3.2218H15.5354C14.9831 3.2218 14.5354 3.66952 14.5354 4.2218C14.5354 4.77409 14.9831 5.2218 15.5354 5.2218H17.3638L5.22168 17.3639L5.22168 15.5355C5.22168 14.9832 4.77397 14.5355 4.22168 14.5355C3.66939 14.5355 3.22168 14.9832 3.22168 15.5355V19.7782C3.22168 20.3304 3.6694 20.7782 4.22168 20.7782H8.46432C9.01661 20.7782 9.46432 20.3304 9.46432 19.7782C9.46432 19.2259 9.01661 18.7782 8.46432 18.7782L6.63589 18.7781L18.778 6.63602V8.46444C18.778 9.01673 19.2257 9.46444 19.778 9.46444C20.3303 9.46444 20.778 9.01673 20.778 8.46444V4.2218Z" fill="black"/>
</svg>
