<svg width="24" height="24" viewBox="0 0 24 24" fill="none" xmlns="http://www.w3.org/2000/svg">
<path fill-rule="evenodd" clip-rule="evenodd" d="M18 19H20C20.5523 19 21 19.4477 21 20C21 20.5523 20.5523 21 20 21H4C3.44772 21 3 20.5523 3 20C3 19.4477 3.44772 19 4 19H6V9.53524C6 9.20088 6.1671 8.88865 6.4453 8.70319L11.4453 5.36985C11.7812 5.14592 12.2188 5.14592 12.5547 5.36985L17.5547 8.70319C17.8329 8.88865 18 9.20088 18 9.53524V19ZM11 19H13V17.0001C13 16.4478 12.5523 16.0001 12 16.0001C11.4477 16.0001 11 16.4478 11 17.0001V19ZM15 15.0001C15.5523 15.0001 16 14.5523 16 14.0001C16 13.4478 15.5523 13.0001 15 13.0001H14C13.4477 13.0001 13 13.4478 13 14.0001C13 14.5523 13.4477 15.0001 14 15.0001H15ZM16 11.0001C16 11.5523 15.5523 12.0001 15 12.0001H14C13.4477 12.0001 13 11.5523 13 11.0001C13 10.4478 13.4477 10.0001 14 10.0001H15C15.5523 10.0001 16 10.4478 16 11.0001ZM10 15.0001C10.5523 15.0001 11 14.5523 11 14.0001C11 13.4478 10.5523 13.0001 10 13.0001H9C8.44772 13.0001 8 13.4478 8 14.0001C8 14.5523 8.44772 15.0001 9 15.0001H10ZM11 11.0001C11 11.5523 10.5523 12.0001 10 12.0001H9C8.44772 12.0001 8 11.5523 8 11.0001C8 10.4478 8.44772 10.0001 9 10.0001H10C10.5523 10.0001 11 10.4478 11 11.0001Z" fill="black"/>
</svg>
