<svg width="24" height="24" viewBox="0 0 24 24" fill="none" xmlns="http://www.w3.org/2000/svg">
<path fill-rule="evenodd" clip-rule="evenodd" d="M13.1094 4.20442C11.7803 3.31834 10 4.27113 10 5.86852V9.91937L7.62473 8.01913C7.19347 7.67412 6.56418 7.74404 6.21917 8.17531C5.87416 8.60657 5.94408 9.23586 6.37534 9.58087L9.39926 12L6.37534 14.4191C5.94408 14.7641 5.87416 15.3934 6.21917 15.8247C6.56418 16.256 7.19347 16.3259 7.62473 15.9809L10 14.0806V18.1315C10 19.7289 11.7803 20.6817 13.1094 19.7956L16.3067 17.6641C17.4941 16.8725 17.4941 15.1275 16.3067 14.3359L12.8028 12L16.3067 9.6641C17.4941 8.87246 17.4941 7.12754 16.3067 6.3359L13.1094 4.20442ZM15.1973 8L12 10.1315V5.86852L15.1973 8ZM15.1973 16L12 18.1315V13.8685L15.1973 16Z" fill="black"/>
</svg>
