<svg width="24" height="24" viewBox="0 0 24 24" fill="none" xmlns="http://www.w3.org/2000/svg">
<path d="M16 14C16 14.5523 15.5523 15 15 15H14C13.4477 15 13 14.5523 13 14C13 13.4477 13.4477 13 14 13H15C15.5523 13 16 13.4477 16 14Z" fill="black"/>
<path d="M15 12C15.5523 12 16 11.5523 16 11C16 10.4477 15.5523 9.99999 15 9.99999H14C13.4477 9.99999 13 10.4477 13 11C13 11.5523 13.4477 12 14 12H15Z" fill="black"/>
<path d="M11 14C11 14.5523 10.5523 15 10 15H9C8.44772 15 8 14.5523 8 14C8 13.4477 8.44772 13 9 13H10C10.5523 13 11 13.4477 11 14Z" fill="black"/>
<path d="M10 12C10.5523 12 11 11.5523 11 11C11 10.4477 10.5523 9.99999 10 9.99999H9C8.44772 9.99999 8 10.4477 8 11C8 11.5523 8.44772 12 9 12H10Z" fill="black"/>
<path fill-rule="evenodd" clip-rule="evenodd" d="M13.1094 4.53774C12.4376 4.08988 11.5624 4.08988 10.8906 4.53774L5.8906 7.87108C5.3342 8.24201 5 8.86647 5 9.53518V19H4C3.44772 19 3 19.4477 3 20C3 20.5523 3.44772 21 4 21H20C20.5523 21 21 20.5523 21 20C21 19.4477 20.5523 19 20 19H19V9.53518C19 8.86647 18.6658 8.24201 18.1094 7.87108L13.1094 4.53774ZM13 19V17C13 16.4477 12.5523 16 12 16C11.4477 16 11 16.4477 11 17V19H7V9.53518L12 6.20184L17 9.53518V19H13Z" fill="black"/>
</svg>
