<svg width="24" height="24" viewBox="0 0 24 24" fill="none" xmlns="http://www.w3.org/2000/svg">
<path fill-rule="evenodd" clip-rule="evenodd" d="M12.6325 2.15671C12.2219 2.01987 11.7781 2.01987 11.3675 2.15671L3.36754 4.82338C2.55086 5.09561 2 5.85988 2 6.72074V8.99998C2 10.1046 2.89543 11 4 11H5V16H4C2.89543 16 2 16.8954 2 18V20C2 21.1046 2.89543 22 4 22H20C21.1046 22 22 21.1046 22 20V18C22 16.8954 21.1046 16 20 16H19V11H20C21.1046 11 22 10.1046 22 8.99998V6.72074C22 5.85988 21.4491 5.09561 20.6325 4.82338L12.6325 2.15671ZM17 16V11H15V16H17ZM13 16V11H11V16H13ZM9 16V11H7V16H9ZM4 18V20H20V18H4ZM4 8.99998L4 6.72074L12 4.05408L20 6.72074V8.99998H4Z" fill="black"/>
</svg>
