<svg width="24" height="24" viewBox="0 0 24 24" fill="none" xmlns="http://www.w3.org/2000/svg">
<path fill-rule="evenodd" clip-rule="evenodd" d="M19 19H21C21.5523 19 22 19.4477 22 20C22 20.5523 21.5523 21 21 21H2.5C1.94772 21 1.5 20.5523 1.5 20C1.5 19.4477 1.94772 19 2.5 19H5V9.58043C5 9.22157 5.19229 8.89023 5.50386 8.71218L11.5039 5.28361C11.8113 5.10794 12.1887 5.10794 12.4961 5.28361L18.4961 8.71218C18.8077 8.89023 19 9.22157 19 9.58043V19ZM11 19H13V18.0001C13 17.4478 12.5523 17.0001 12 17.0001C11.4477 17.0001 11 17.4478 11 18.0001V19ZM16 10.0001C16 10.5524 15.5523 11.0001 15 11.0001H14C13.4477 11.0001 13 10.5524 13 10.0001C13 9.44782 13.4477 9.0001 14 9.0001H15C15.5523 9.0001 16 9.44782 16 10.0001ZM10 14.0001C10.5523 14.0001 11 13.5524 11 13.0001C11 12.4478 10.5523 12.0001 10 12.0001H9C8.44772 12.0001 8 12.4478 8 13.0001C8 13.5524 8.44772 14.0001 9 14.0001H10ZM11 10.0001C11 10.5524 10.5523 11.0001 10 11.0001H9C8.44772 11.0001 8 10.5524 8 10.0001C8 9.44782 8.44772 9.0001 9 9.0001H10C10.5523 9.0001 11 9.44782 11 10.0001ZM15 14.0001C15.5523 14.0001 16 13.5524 16 13.0001C16 12.4478 15.5523 12.0001 15 12.0001H14C13.4477 12.0001 13 12.4478 13 13.0001C13 13.5524 13.4477 14.0001 14 14.0001H15ZM11 16.0001C11 16.5524 10.5523 17.0001 10 17.0001H9C8.44772 17.0001 8 16.5524 8 16.0001C8 15.4478 8.44772 15.0001 9 15.0001H10C10.5523 15.0001 11 15.4478 11 16.0001ZM15 17.0001C15.5523 17.0001 16 16.5524 16 16.0001C16 15.4478 15.5523 15.0001 15 15.0001H14C13.4477 15.0001 13 15.4478 13 16.0001C13 16.5524 13.4477 17.0001 14 17.0001H15Z" fill="black"/>
</svg>
