<svg width="24" height="24" viewBox="0 0 24 24" fill="none" xmlns="http://www.w3.org/2000/svg">
<path fill-rule="evenodd" clip-rule="evenodd" d="M5 19V9.58023C5 9.22137 5.19229 8.89003 5.50386 8.71198L11.5108 5.27946C11.8145 5.10592 12.1868 5.10367 12.4926 5.27355L15.5015 6.94517C15.5299 6.41838 15.9661 6 16.5 6C17.0523 6 17.5 6.44772 17.5 7V8.09991L18.5145 8.7086C18.8157 8.88933 19 9.21483 19 9.5661V19H20C20.5523 19 21 19.4477 21 20C21 20.5523 20.5523 21 20 21H4C3.44772 21 3 20.5523 3 20C3 19.4477 3.44772 19 4 19H5ZM11 19H13V16.9999C13 16.4476 12.5523 15.9999 12 15.9999C11.4477 15.9999 11 16.4476 11 16.9999V19ZM16 13.9999C16 14.5522 15.5523 14.9999 15 14.9999H14C13.4477 14.9999 13 14.5522 13 13.9999C13 13.4476 13.4477 12.9999 14 12.9999H15C15.5523 12.9999 16 13.4476 16 13.9999ZM15 11.9999C15.5523 11.9999 16 11.5522 16 10.9999C16 10.4476 15.5523 9.99991 15 9.99991H14C13.4477 9.99991 13 10.4476 13 10.9999C13 11.5522 13.4477 11.9999 14 11.9999H15ZM11 13.9999C11 14.5522 10.5523 14.9999 10 14.9999H9C8.44772 14.9999 8 14.5522 8 13.9999C8 13.4476 8.44772 12.9999 9 12.9999H10C10.5523 12.9999 11 13.4476 11 13.9999ZM10 11.9999C10.5523 11.9999 11 11.5522 11 10.9999C11 10.4476 10.5523 9.99991 10 9.99991H9C8.44772 9.99991 8 10.4476 8 10.9999C8 11.5522 8.44772 11.9999 9 11.9999H10Z" fill="black"/>
</svg>
