<svg width="24" height="24" viewBox="0 0 24 24" fill="none" xmlns="http://www.w3.org/2000/svg">
<path d="M15 11C15.5523 11 16 10.5523 16 9.99998C16 9.4477 15.5523 8.99998 15 8.99998H14C13.4477 8.99998 13 9.4477 13 9.99998C13 10.5523 13.4477 11 14 11H15Z" fill="black"/>
<path d="M11 13C11 13.5523 10.5523 14 10 14H9C8.44772 14 8 13.5523 8 13C8 12.4477 8.44772 12 9 12H10C10.5523 12 11 12.4477 11 13Z" fill="black"/>
<path d="M10 11C10.5523 11 11 10.5523 11 9.99998C11 9.4477 10.5523 8.99998 10 8.99998H9C8.44772 8.99998 8 9.4477 8 9.99998C8 10.5523 8.44772 11 9 11H10Z" fill="black"/>
<path d="M16 13C16 13.5523 15.5523 14 15 14H14C13.4477 14 13 13.5523 13 13C13 12.4477 13.4477 12 14 12H15C15.5523 12 16 12.4477 16 13Z" fill="black"/>
<path d="M10 17C10.5523 17 11 16.5523 11 16C11 15.4477 10.5523 15 10 15H9C8.44772 15 8 15.4477 8 16C8 16.5523 8.44772 17 9 17H10Z" fill="black"/>
<path d="M16 16C16 16.5523 15.5523 17 15 17H14C13.4477 17 13 16.5523 13 16C13 15.4477 13.4477 15 14 15H15C15.5523 15 16 15.4477 16 16Z" fill="black"/>
<path fill-rule="evenodd" clip-rule="evenodd" d="M12.9923 4.41525C12.3774 4.0639 11.6226 4.0639 11.0077 4.41525L5.00772 7.84382C4.38457 8.1999 4 8.86259 4 9.5803V19H2.5C1.94772 19 1.5 19.4477 1.5 20C1.5 20.5523 1.94772 21 2.5 21H21.5C22.0523 21 22.5 20.5523 22.5 20C22.5 19.4477 22.0523 19 21.5 19H20V9.58031C20 8.86259 19.6154 8.1999 18.9923 7.84382L12.9923 4.41525ZM13 19V18C13 17.4477 12.5523 17 12 17C11.4477 17 11 17.4477 11 18V19H6V9.58031L12 6.15173L18 9.58031V19H13Z" fill="black"/>
</svg>
