<svg width="24" height="24" viewBox="0 0 24 24" fill="none" xmlns="http://www.w3.org/2000/svg">
<path fill-rule="evenodd" clip-rule="evenodd" d="M11.6838 3.10539L3.68377 5.77206C3.27543 5.90817 3 6.29031 3 6.72074V8.99998C3 9.55227 3.44772 9.99998 4 9.99998H5V17H4C3.44772 17 3 17.4477 3 18V20C3 20.5523 3.44772 21 4 21H20C20.5523 21 21 20.5523 21 20V18C21 17.4477 20.5523 17 20 17H19V9.99998H20C20.5523 9.99998 21 9.55227 21 8.99998V6.72074C21 6.29031 20.7246 5.90817 20.3162 5.77206L12.3162 3.10539C12.111 3.03697 11.889 3.03697 11.6838 3.10539ZM17 17V9.99998H15V17H17ZM13 17V9.99998H11V17H13ZM9 17V9.99998H7V17H9Z" fill="black"/>
</svg>
