<svg width="24" height="24" viewBox="0 0 24 24" fill="none" xmlns="http://www.w3.org/2000/svg">
<path fill-rule="evenodd" clip-rule="evenodd" d="M5 2C3.34315 2 2 3.34315 2 5V19C2 20.6569 3.34315 22 5 22H19C20.6569 22 22 20.6569 22 19V5C22 3.34315 20.6569 2 19 2H5ZM14.7929 20.2071C15.1834 20.5976 15.8166 20.5976 16.2071 20.2071L20.2071 16.2071C20.5976 15.8166 20.5976 15.1834 20.2071 14.7929C19.8166 14.4024 19.1834 14.4024 18.7929 14.7929L16.5 17.0858V15.5C16.5 8.87258 11.1274 3.5 4.5 3.5C3.94771 3.5 3.5 3.94771 3.5 4.5C3.5 5.05229 3.94771 5.5 4.5 5.5C10.0228 5.5 14.5 9.97715 14.5 15.5V17.0858L12.2071 14.7929C11.8166 14.4024 11.1834 14.4024 10.7929 14.7929C10.4024 15.1834 10.4024 15.8166 10.7929 16.2071L14.7929 20.2071Z" fill="black"/>
</svg>
