<svg width="24" height="24" viewBox="0 0 24 24" fill="none" xmlns="http://www.w3.org/2000/svg">
<path fill-rule="evenodd" clip-rule="evenodd" d="M9.87445 2.80756C8.31235 1.24546 5.77969 1.24546 4.21759 2.80756L3.68206 3.34309C2.94369 4.08146 2.43866 5.18793 2.72673 6.38653C3.16834 8.22404 4.49723 11.5725 8.46023 15.5355C12.4232 19.4985 15.7717 20.8274 17.6092 21.269C18.8078 21.5571 19.9143 21.052 20.6526 20.3137L21.1882 19.7781C22.7503 18.216 22.7503 15.6834 21.1882 14.1213L20.2593 13.1924C18.986 11.9191 17.0189 11.6536 15.4536 12.5437L15.3571 12.5985C14.7157 12.9633 13.9788 12.9335 13.4568 12.5557C13.0355 12.2508 12.6329 11.93 12.3493 11.6464C12.0657 11.3628 11.7449 10.9602 11.44 10.539C11.0622 10.0169 11.0324 9.28004 11.3972 8.63861L11.4521 8.54207C12.3421 6.97677 12.0766 5.0097 10.8033 3.73644L9.87445 2.80756ZM5.63181 4.22177C6.41286 3.44072 7.67918 3.44072 8.46023 4.22177L9.38911 5.15065C10.0257 5.78728 10.1585 6.77082 9.71348 7.55347L9.65859 7.65C8.95368 8.88966 8.92895 10.4805 9.81983 11.7115C10.1471 12.1637 10.5403 12.6658 10.9351 13.0606C11.3299 13.4554 11.832 13.8487 12.2842 14.1759C13.5152 15.0668 15.1061 15.042 16.3457 14.3371L16.4422 14.2822C17.2249 13.8372 18.2084 13.97 18.8451 14.6066L19.7739 15.5355C20.555 16.3165 20.555 17.5829 19.7739 18.3639L19.2384 18.8994C18.8516 19.2863 18.4252 19.4082 18.0765 19.3244C16.6075 18.9713 13.5841 17.8309 9.87445 14.1213C6.16478 10.4116 5.02441 7.38822 4.67135 5.91918C4.58756 5.57053 4.70942 5.14416 5.09627 4.75731L5.63181 4.22177Z" fill="black"/>
</svg>
