<svg width="24" height="24" viewBox="0 0 24 24" fill="none" xmlns="http://www.w3.org/2000/svg">
<path d="M15.7929 21.2071C16.1834 21.5976 16.8166 21.5976 17.2071 21.2071L21.2071 17.2071C21.5976 16.8166 21.5976 16.1834 21.2071 15.7929C20.8166 15.4024 20.1834 15.4024 19.7929 15.7929L17.5 18.0858V16.5C17.5 8.76801 11.232 2.5 3.5 2.5C2.94772 2.5 2.5 2.94772 2.5 3.5C2.5 4.05228 2.94772 4.5 3.5 4.5C10.1274 4.5 15.5 9.87258 15.5 16.5V18.0858L13.2071 15.7929C12.8166 15.4024 12.1834 15.4024 11.7929 15.7929C11.4024 16.1834 11.4024 16.8166 11.7929 17.2071L15.7929 21.2071Z" fill="black"/>
</svg>
