<svg width="24" height="24" viewBox="0 0 24 24" fill="none" xmlns="http://www.w3.org/2000/svg">
<path d="M4.9258 3.51479L4.39027 4.05032C3.82766 4.61293 3.51422 5.37936 3.70014 6.15298C4.09748 7.80625 5.3321 10.9922 9.16844 14.8285C13.0048 18.6648 16.1907 19.8995 17.844 20.2968C18.6176 20.4827 19.384 20.1693 19.9466 19.6067L20.4822 19.0711C21.6537 17.8996 21.6537 16.0001 20.4822 14.8285L19.5533 13.8996C18.5983 12.9447 17.123 12.7455 15.949 13.4131L15.8525 13.468C14.912 14.0028 13.7481 14.0002 12.8716 13.3659C12.4349 13.0499 11.9825 12.6928 11.6433 12.3536C11.3041 12.0144 10.9471 11.5621 10.631 11.1254C9.9967 10.2489 9.99416 9.08497 10.529 8.14443L10.5839 8.04789C11.2514 6.87392 11.0523 5.39861 10.0973 4.44367L9.16844 3.51479C7.99687 2.34321 6.09737 2.34322 4.9258 3.51479Z" fill="black"/>
<path d="M13.7371 9.3267C13.7669 9.83276 14.1706 10.2365 14.6766 10.2663L16.6801 10.3841C17.2314 10.4165 17.7047 9.99589 17.7371 9.44456C17.7655 8.96224 17.4471 8.53969 16.9978 8.41975L18.978 6.43956C19.3685 6.04903 19.3685 5.41587 18.978 5.02534C18.5875 4.63482 17.9543 4.63482 17.5638 5.02534L15.5836 7.00553C15.4637 6.55625 15.0411 6.23787 14.5588 6.26624C14.0075 6.29867 13.5868 6.7719 13.6192 7.32324L13.7371 9.3267Z" fill="black"/>
</svg>
