<svg width="24" height="24" viewBox="0 0 24 24" fill="none" xmlns="http://www.w3.org/2000/svg">
<path fill-rule="evenodd" clip-rule="evenodd" d="M5 2C3.34315 2 2 3.34315 2 5V19C2 20.6569 3.34315 22 5 22H19C20.6569 22 22 20.6569 22 19V5C22 3.34315 20.6569 2 19 2H5ZM8.29856 10.6984C7.65658 11.4474 7.65658 12.5526 8.29856 13.3016L13.7407 19.6508C14.1002 20.0701 14.7315 20.1187 15.1508 19.7593C15.5701 19.3998 15.6187 18.7685 15.2593 18.3492L9.81708 12L15.2593 5.65079C15.6187 5.23146 15.5701 4.60016 15.1508 4.24074C14.7315 3.88132 14.1002 3.92988 13.7407 4.34921L8.29856 10.6984Z" fill="black"/>
</svg>
