<svg width="24" height="24" viewBox="0 0 24 24" fill="none" xmlns="http://www.w3.org/2000/svg">
<path fill-rule="evenodd" clip-rule="evenodd" d="M3.68206 3.34322C2.94369 4.08158 2.43866 5.18806 2.72673 6.38665C3.16834 8.22417 4.49723 11.5726 8.46023 15.5356C12.4232 19.4986 15.7717 20.8275 17.6092 21.2691C18.8078 21.5572 19.9143 21.0521 20.6526 20.3138L21.1882 19.7782C22.7503 18.2161 22.7503 15.6835 21.1882 14.1214L20.2593 13.1925C18.986 11.9193 17.0189 11.6537 15.4536 12.5438L15.3571 12.5987C14.7157 12.9634 13.9788 12.9336 13.4568 12.5558C13.0355 12.2509 12.6329 11.9301 12.3493 11.6465C12.0657 11.3629 11.7449 10.9603 11.44 10.5391C11.0622 10.017 11.0324 9.28016 11.3972 8.63873L11.4521 8.5422C12.3421 6.9769 12.0766 5.00982 10.8033 3.73656L9.87445 2.80768C8.31235 1.24558 5.77969 1.24559 4.21759 2.80768L3.68206 3.34322ZM4.67135 5.9193C4.58756 5.57066 4.70942 5.14428 5.09627 4.75743L5.63181 4.2219C6.41286 3.44085 7.67918 3.44085 8.46023 4.22189L9.38911 5.15077C10.0257 5.7874 10.1585 6.77094 9.71348 7.55359L9.65859 7.65012C8.95368 8.88978 8.92895 10.4807 9.81983 11.7116C10.1471 12.1638 10.5403 12.6659 10.9351 13.0607C11.3299 13.4555 11.832 13.8488 12.2842 14.176C13.5152 15.0669 15.1061 15.0422 16.3457 14.3373L16.4422 14.2824C17.2249 13.8373 18.2084 13.9701 18.8451 14.6067L19.7739 15.5356C20.555 16.3167 20.555 17.583 19.7739 18.364L19.2384 18.8996C18.8516 19.2864 18.4252 19.4083 18.0765 19.3245C16.6075 18.9714 13.5841 17.8311 9.87445 14.1214C6.16477 10.4117 5.02441 7.38834 4.67135 5.9193Z" fill="black"/>
<path d="M16.2921 4.87871C15.9015 4.48819 15.2684 4.48819 14.8779 4.87871C14.4873 5.26923 14.4873 5.9024 14.8779 6.29292L15.585 7.00003L14.8779 7.70714C14.4873 8.09766 14.4873 8.73083 14.8779 9.12135C15.2684 9.51187 15.9015 9.51187 16.2921 9.12135L16.9992 8.41424L17.7063 9.12135C18.0968 9.51187 18.73 9.51187 19.1205 9.12135C19.511 8.73083 19.511 8.09766 19.1205 7.70714L18.4134 7.00003L19.1205 6.29292C19.511 5.9024 19.511 5.26923 19.1205 4.87871C18.73 4.48819 18.0968 4.48819 17.7063 4.87871L16.9992 5.58582L16.2921 4.87871Z" fill="black"/>
</svg>
