<svg width="24" height="24" viewBox="0 0 24 24" fill="none" xmlns="http://www.w3.org/2000/svg">
<path d="M4.9258 3.51479L4.39027 4.05032C3.82766 4.61293 3.51422 5.37936 3.70014 6.15298C4.09748 7.80625 5.3321 10.9922 9.16844 14.8285C13.0048 18.6648 16.1907 19.8995 17.844 20.2968C18.6176 20.4827 19.384 20.1693 19.9466 19.6067L20.4822 19.0711C21.6537 17.8996 21.6537 16.0001 20.4822 14.8285L19.5533 13.8996C18.5983 12.9447 17.123 12.7455 15.949 13.4131L15.8525 13.468C14.912 14.0028 13.7481 14.0002 12.8716 13.3659C12.4349 13.0499 11.9825 12.6928 11.6433 12.3536C11.3041 12.0144 10.9471 11.5621 10.631 11.1254C9.9967 10.2489 9.99416 9.08497 10.529 8.14443L10.5839 8.04789C11.2514 6.87392 11.0523 5.39861 10.0973 4.44367L9.16844 3.51479C7.99687 2.34321 6.09737 2.34322 4.9258 3.51479Z" fill="black"/>
<path d="M16.2932 4.87871C15.9026 4.48819 15.2695 4.48819 14.879 4.87871C14.4884 5.26923 14.4884 5.9024 14.879 6.29292L15.5861 7.00003L14.879 7.70714C14.4884 8.09766 14.4884 8.73083 14.879 9.12135C15.2695 9.51187 15.9026 9.51187 16.2932 9.12135L17.0003 8.41424L17.7074 9.12135C18.0979 9.51187 18.7311 9.51187 19.1216 9.12135C19.5121 8.73083 19.5121 8.09766 19.1216 7.70714L18.4145 7.00003L19.1216 6.29292C19.5121 5.9024 19.5121 5.26923 19.1216 4.87871C18.7311 4.48819 18.0979 4.48819 17.7074 4.87871L17.0003 5.58582L16.2932 4.87871Z" fill="black"/>
</svg>
