<svg width="24" height="24" viewBox="0 0 24 24" fill="none" xmlns="http://www.w3.org/2000/svg">
<path d="M4.9258 3.51479L4.39027 4.05032C3.82766 4.61293 3.51422 5.37936 3.70014 6.15298C4.09748 7.80625 5.3321 10.9922 9.16844 14.8285C13.0048 18.6648 16.1907 19.8995 17.844 20.2968C18.6176 20.4827 19.384 20.1693 19.9466 19.6067L20.4822 19.0711C21.6537 17.8996 21.6537 16.0001 20.4822 14.8285L19.5533 13.8996C18.5983 12.9447 17.123 12.7455 15.949 13.4131L15.8525 13.468C14.912 14.0028 13.7481 14.0002 12.8716 13.3659C12.4349 13.0499 11.9825 12.6928 11.6433 12.3536C11.3041 12.0144 10.9471 11.5621 10.631 11.1254C9.9967 10.2489 9.99416 9.08497 10.529 8.14443L10.5839 8.04789C11.2514 6.87392 11.0523 5.39861 10.0973 4.44367L9.16844 3.51479C7.99687 2.34321 6.09737 2.34322 4.9258 3.51479Z" fill="black"/>
<path d="M15.0002 7.00003C14.4479 7.00003 14.0002 7.44774 14.0002 8.00003C14.0002 8.55231 14.4479 9.00003 15.0002 9.00003H19.0002C19.5525 9.00003 20.0002 8.55231 20.0002 8.00003C20.0002 7.44774 19.5525 7.00003 19.0002 7.00003H15.0002Z" fill="black"/>
</svg>
