<svg width="24" height="24" viewBox="0 0 24 24" fill="none" xmlns="http://www.w3.org/2000/svg">
<path fill-rule="evenodd" clip-rule="evenodd" d="M3.68206 3.34322C2.94369 4.08158 2.43866 5.18806 2.72673 6.38665C3.16834 8.22417 4.49723 11.5726 8.46023 15.5356C12.4232 19.4986 15.7717 20.8275 17.6092 21.2691C18.8078 21.5572 19.9143 21.0521 20.6526 20.3138L21.1882 19.7782C22.7503 18.2161 22.7503 15.6835 21.1882 14.1214L20.2593 13.1925C18.986 11.9193 17.0189 11.6537 15.4536 12.5438L15.3571 12.5987C14.7157 12.9634 13.9788 12.9336 13.4568 12.5558C13.0355 12.2509 12.6329 11.9301 12.3493 11.6465C12.0657 11.3629 11.7449 10.9603 11.44 10.5391C11.0622 10.017 11.0324 9.28016 11.3972 8.63873L11.4521 8.5422C12.3421 6.9769 12.0766 5.00982 10.8033 3.73656L9.87445 2.80768C8.31235 1.24558 5.77969 1.24559 4.21759 2.80768L3.68206 3.34322ZM4.67135 5.9193C4.58756 5.57066 4.70942 5.14428 5.09627 4.75743L5.63181 4.2219C6.41286 3.44085 7.67918 3.44085 8.46023 4.22189L9.38911 5.15077C10.0257 5.7874 10.1585 6.77094 9.71348 7.55359L9.65859 7.65012C8.95368 8.88978 8.92895 10.4807 9.81983 11.7116C10.1471 12.1638 10.5403 12.6659 10.9351 13.0607C11.3299 13.4555 11.832 13.8488 12.2842 14.176C13.5152 15.0669 15.1061 15.0422 16.3457 14.3373L16.4422 14.2824C17.2249 13.8373 18.2084 13.9701 18.8451 14.6067L19.7739 15.5356C20.555 16.3167 20.555 17.583 19.7739 18.364L19.2384 18.8996C18.8516 19.2864 18.4252 19.4083 18.0765 19.3245C16.6075 18.9714 13.5841 17.8311 9.87445 14.1214C6.16477 10.4117 5.02441 7.38834 4.67135 5.9193Z" fill="black"/>
<path d="M19.2681 5.6736C19.2383 5.16754 18.8346 4.76381 18.3285 4.73405L16.325 4.6162C15.7737 4.58376 15.3005 5.00442 15.268 5.55575C15.2397 6.03807 15.5581 6.46062 16.0073 6.58056L14.0271 8.56075C13.6366 8.95127 13.6366 9.58444 14.0271 9.97496C14.4177 10.3655 15.0508 10.3655 15.4414 9.97496L17.4216 7.99477C17.5415 8.44405 17.964 8.76244 18.4464 8.73407C18.9977 8.70163 19.4183 8.2284 19.3859 7.67707L19.2681 5.6736Z" fill="black"/>
</svg>
