<svg width="24" height="24" viewBox="0 0 24 24" fill="none" xmlns="http://www.w3.org/2000/svg">
<path fill-rule="evenodd" clip-rule="evenodd" d="M2.72673 6.38665C2.43866 5.18806 2.94369 4.08158 3.68206 3.34322L4.21759 2.80768C5.77969 1.24559 8.31235 1.24558 9.87445 2.80768L10.8033 3.73656C12.0766 5.00982 12.3421 6.9769 11.4521 8.5422L11.3972 8.63873C11.0324 9.28016 11.0622 10.017 11.44 10.5391C11.7449 10.9603 12.0657 11.3629 12.3493 11.6465C12.6329 11.9301 13.0355 12.2509 13.4568 12.5558C13.9788 12.9336 14.7157 12.9634 15.3571 12.5987L15.4536 12.5438C17.0189 11.6537 18.986 11.9193 20.2593 13.1925L21.1882 14.1214C22.7503 15.6835 22.7503 18.2161 21.1882 19.7782L20.6526 20.3138C19.9143 21.0521 18.8078 21.5572 17.6092 21.2691C15.7717 20.8275 12.4232 19.4986 8.46023 15.5356C4.49723 11.5726 3.16834 8.22417 2.72673 6.38665ZM5.09627 4.75743C4.70942 5.14428 4.58756 5.57066 4.67135 5.9193C5.02441 7.38834 6.16477 10.4117 9.87445 14.1214C13.5841 17.8311 16.6075 18.9714 18.0765 19.3245C18.4252 19.4083 18.8516 19.2864 19.2384 18.8996L19.7739 18.364C20.555 17.583 20.555 16.3167 19.7739 15.5356L18.8451 14.6067C18.2084 13.9701 17.2249 13.8373 16.4422 14.2824L16.3457 14.3373C15.1061 15.0422 13.5152 15.0669 12.2842 14.176C11.832 13.8488 11.3299 13.4555 10.9351 13.0607C10.5403 12.6659 10.1471 12.1638 9.81983 11.7116C8.92895 10.4807 8.95368 8.88978 9.65859 7.65012L9.71348 7.55359C10.1585 6.77094 10.0257 5.7874 9.38911 5.15077L8.46023 4.22189C7.67918 3.44085 6.41286 3.44085 5.63181 4.2219L5.09627 4.75743Z" fill="black"/>
<path d="M18.0088 3.00636C18.6231 3.269 19.1826 3.64799 19.656 4.12135C20.1294 4.59471 20.5083 5.1542 20.771 5.76857C21.0336 6.38299 21.1752 7.04127 21.1859 7.70634C21.1967 8.37151 21.0763 9.03056 20.8299 9.64531C20.7421 9.86434 20.639 10.0761 20.5214 10.2792C20.2447 10.7572 19.6329 10.9203 19.155 10.6436C18.677 10.3669 18.5139 9.75513 18.7906 9.27717C18.8601 9.15703 18.9213 9.03148 18.9734 8.90132C19.1198 8.53615 19.1927 8.14124 19.1862 7.73861C19.1797 7.33588 19.0939 6.93342 18.932 6.55473C18.7701 6.17599 18.5356 5.82943 18.2418 5.53556C17.9479 5.2417 17.6014 5.00728 17.2226 4.84537C16.8439 4.68349 16.4415 4.59766 16.0387 4.59116C15.6361 4.58467 15.2412 4.65756 14.876 4.8039C14.7459 4.85606 14.6203 4.91722 14.5002 4.98678C14.0222 5.26349 13.4104 5.10035 13.1337 4.62239C12.857 4.14443 13.0201 3.53264 13.4981 3.25592C13.7012 3.13834 13.913 3.03521 14.132 2.94743C14.7468 2.70106 15.4058 2.58069 16.071 2.59142C16.7361 2.60215 17.3944 2.74371 18.0088 3.00636Z" fill="black"/>
<path d="M17.6204 6.20714C17.321 5.90774 16.9584 5.68506 16.559 5.54841C16.1605 5.41205 15.738 5.36541 15.3185 5.40062C14.8993 5.43579 14.4884 5.55207 14.1069 5.73574C13.8877 5.84126 13.6793 5.96847 13.4849 6.11424C13.0431 6.44561 12.9535 7.07242 13.2849 7.51424C13.6163 7.95607 14.2431 8.04561 14.6849 7.71424C14.7773 7.64491 14.8746 7.58582 14.9744 7.5378C15.1488 7.45383 15.3233 7.40724 15.4857 7.39361C15.6477 7.38002 15.7914 7.39959 15.9115 7.44069C16.0308 7.4815 16.1289 7.54405 16.2062 7.62135C16.2835 7.69865 16.3461 7.7968 16.3869 7.91606C16.428 8.03617 16.4476 8.17984 16.434 8.34186C16.4203 8.50423 16.3737 8.67878 16.2898 8.85321C16.2418 8.95296 16.1827 9.05023 16.1133 9.14267C15.782 9.5845 15.8715 10.2113 16.3133 10.5427C16.7552 10.874 17.382 10.7845 17.7133 10.3427C17.8591 10.1483 17.9863 9.93992 18.0918 9.72072C18.2755 9.3392 18.3918 8.92828 18.427 8.50911C18.4622 8.08959 18.4155 7.66703 18.2792 7.26854C18.1425 6.8692 17.9198 6.50654 17.6204 6.20714Z" fill="black"/>
</svg>
