<svg width="24" height="24" viewBox="0 0 24 24" fill="none" xmlns="http://www.w3.org/2000/svg">
<path d="M18.0099 3.00636C18.6242 3.269 19.1837 3.64798 19.6571 4.12135C20.1305 4.59471 20.5094 5.15419 20.7721 5.76856C21.0347 6.38298 21.1763 7.04127 21.187 7.70634C21.1978 8.37151 21.0774 9.03055 20.831 9.64531C20.7432 9.86434 20.6401 10.0761 20.5225 10.2792C20.2458 10.7572 19.634 10.9203 19.1561 10.6436C18.6781 10.3669 18.515 9.75512 18.7917 9.27716C18.8612 9.15703 18.9224 9.03148 18.9745 8.90131C19.1209 8.53614 19.1938 8.14123 19.1873 7.7386C19.1808 7.33587 19.095 6.93342 18.9331 6.55472C18.7712 6.17598 18.5367 5.82943 18.2429 5.53556C17.949 5.24169 17.6025 5.00728 17.2237 4.84537C16.845 4.68348 16.4426 4.59766 16.0398 4.59116C15.6372 4.58466 15.2423 4.65755 14.8771 4.8039C14.747 4.85606 14.6214 4.91722 14.5013 4.98677C14.0233 5.26349 13.4115 5.10034 13.1348 4.62238C12.8581 4.14442 13.0212 3.53263 13.4992 3.25592C13.7023 3.13834 13.9141 3.03521 14.1331 2.94743C14.7479 2.70106 15.4069 2.58069 16.0721 2.59142C16.7372 2.60215 17.3955 2.7437 18.0099 3.00636Z" fill="black"/>
<path d="M4.39027 4.05032L4.9258 3.51478C6.09737 2.34321 7.99687 2.34321 9.16844 3.51478L10.0973 4.44366C11.0523 5.39861 11.2514 6.87391 10.5839 8.04789L10.529 8.14442C9.99416 9.08497 9.9967 10.2488 10.631 11.1254C10.9471 11.562 11.3041 12.0144 11.6433 12.3536C11.9825 12.6928 12.4349 13.0499 12.8716 13.3659C13.7481 14.0002 14.912 14.0028 15.8525 13.468L15.949 13.4131C17.123 12.7455 18.5983 12.9447 19.5533 13.8996L20.4822 14.8285C21.6537 16.0001 21.6537 17.8996 20.4822 19.0711L19.9466 19.6067C19.384 20.1693 18.6176 20.4827 17.844 20.2968C16.1907 19.8995 13.0048 18.6648 9.16844 14.8285C5.3321 10.9922 4.09748 7.80625 3.70014 6.15297C3.51422 5.37935 3.82766 4.61293 4.39027 4.05032Z" fill="black"/>
<path d="M17.6215 6.20713C17.3221 5.90773 16.9595 5.68506 16.5601 5.54841C16.1617 5.41205 15.7391 5.36541 15.3196 5.40061C14.9004 5.43579 14.4895 5.55207 14.108 5.73573C13.8888 5.84126 13.6804 5.96847 13.486 6.11424C13.0442 6.44561 12.9546 7.07241 13.286 7.51424C13.6174 7.95607 14.2442 8.04561 14.686 7.71424C14.7785 7.64491 14.8757 7.58581 14.9755 7.53779C15.1499 7.45382 15.3245 7.40723 15.4868 7.39361C15.6488 7.38001 15.7925 7.39959 15.9126 7.44069C16.0319 7.4815 16.13 7.54404 16.2073 7.62135C16.2846 7.69865 16.3472 7.79679 16.388 7.91605C16.4291 8.03616 16.4487 8.17984 16.4351 8.34185C16.4214 8.50422 16.3749 8.67877 16.2909 8.8532C16.2429 8.95295 16.1838 9.05022 16.1144 9.14267C15.7831 9.58449 15.8726 10.2113 16.3144 10.5427C16.7563 10.874 17.3831 10.7845 17.7144 10.3427C17.8602 10.1483 17.9874 9.93991 18.0929 9.72071C18.2766 9.33919 18.3929 8.92828 18.4281 8.50911C18.4633 8.08958 18.4166 7.66702 18.2803 7.26853C18.1436 6.86919 17.9209 6.50653 17.6215 6.20713Z" fill="black"/>
</svg>
