<svg width="24" height="24" viewBox="0 0 24 24" fill="none" xmlns="http://www.w3.org/2000/svg">
<path d="M4.39027 4.05026L4.9258 3.51473C6.09737 2.34316 7.99687 2.34315 9.16844 3.51473L10.0973 4.4436C11.0523 5.39855 11.2514 6.87386 10.5839 8.04783L10.529 8.14436C9.99416 9.08491 9.9967 10.2488 10.631 11.1253C10.9471 11.562 11.3041 12.0144 11.6433 12.3536C11.9825 12.6928 12.4349 13.0498 12.8716 13.3658C13.7481 14.0002 14.912 14.0027 15.8525 13.4679L15.949 13.413C17.123 12.7455 18.5983 12.9446 19.5533 13.8996L20.4822 14.8284C21.6537 16 21.6537 17.8995 20.4822 19.0711L19.9466 19.6066C19.384 20.1692 18.6176 20.4827 17.844 20.2967C16.1907 19.8994 13.0048 18.6648 9.16844 14.8284C5.3321 10.9921 4.09748 7.80619 3.70014 6.15291C3.51422 5.37929 3.82766 4.61287 4.39027 4.05026Z" fill="black"/>
</svg>
