<svg width="24" height="24" viewBox="0 0 24 24" fill="none" xmlns="http://www.w3.org/2000/svg">
<path fill-rule="evenodd" clip-rule="evenodd" d="M1 5.89991C1 3.69077 2.79086 1.8999 5 1.8999H15C17.2091 1.8999 19 3.69076 19 5.8999V6.99994C19 7.05648 18.9953 7.11192 18.9863 7.1659C20.1586 7.57384 21 8.68866 21 10V18C21 19.6569 19.6569 21 18 21H14C12.7238 21 11.6338 20.2032 11.2002 19.0799C11.1355 19.093 11.0686 19.0999 11 19.0999H6.80001C6.24773 19.0999 5.80001 18.6522 5.80001 18.0999C5.80001 17.5476 6.24773 17.0999 6.80001 17.0999H9.00001V16.6999H5C2.79086 16.6999 1 14.909 1 12.6999V5.89991ZM11 14.6999V10C11 8.34315 12.3431 7 14 7H17C17 6.99998 17 7.00002 17 7V5.8999C17 4.79533 16.1046 3.8999 15 3.8999H5C3.89543 3.8999 3 4.79533 3 5.89991V12.6999C3 13.8045 3.89543 14.6999 5 14.6999H11ZM13 10C13 9.44772 13.4477 9 14 9H14.2707C14.4531 9.19437 14.7124 9.31579 15 9.31579H17C17.2876 9.31579 17.5469 9.19437 17.7293 9H18C18.5523 9 19 9.44772 19 10V18C19 18.5523 18.5523 19 18 19H14C13.4477 19 13 18.5523 13 18V10Z" fill="black"/>
</svg>
