<svg width="24" height="24" viewBox="0 0 24 24" fill="none" xmlns="http://www.w3.org/2000/svg">
<path d="M5.75747 10.2166L11.862 11.9607C11.9517 11.9864 12.0469 11.9864 12.1367 11.9607L18.2412 10.2166C18.5937 10.1159 18.7215 9.68252 18.4801 9.40658L12.3756 2.43002C12.1764 2.20236 11.8222 2.20236 11.623 2.43003L5.51854 9.40658C5.2771 9.68252 5.40492 10.1159 5.75747 10.2166Z" fill="black"/>
<path d="M11.5968 21.4537L5.86882 13.68C5.58588 13.296 5.95009 12.7716 6.40871 12.9027L11.862 14.4607C11.9517 14.4864 12.0469 14.4864 12.1367 14.4607L17.5899 12.9027C18.0485 12.7716 18.4128 13.296 18.1298 13.68L12.4018 21.4537C12.202 21.7249 11.7966 21.7249 11.5968 21.4537Z" fill="black"/>
</svg>
