<svg width="24" height="24" viewBox="0 0 24 24" fill="none" xmlns="http://www.w3.org/2000/svg">
<path fill-rule="evenodd" clip-rule="evenodd" d="M18.5165 11.1781L12.412 12.9223C12.1427 12.9992 11.8572 12.9992 11.5878 12.9223L5.48334 11.1781C4.4257 10.8759 4.04222 9.57589 4.76656 8.74808L10.871 1.77152C11.4687 1.08853 12.5312 1.08853 13.1288 1.77152L19.2333 8.74808C19.9576 9.57589 19.5741 10.8759 18.5165 11.1781ZM6.79094 9.47169L11.9999 10.96L17.2089 9.47169L11.9999 3.51857L6.79094 9.47169Z" fill="black"/>
<path fill-rule="evenodd" clip-rule="evenodd" d="M13.2075 22.0469C12.608 22.8605 11.3918 22.8605 10.7923 22.0469L5.06436 14.2732C4.21554 13.1213 5.30815 11.548 6.68403 11.9411L11.9999 13.46L17.3158 11.9411C18.6917 11.548 19.7843 13.1212 18.9355 14.2732L13.2075 22.0469ZM7.54398 14.2669L11.9999 20.3142L16.4558 14.2669L12.412 15.4223C12.1427 15.4992 11.8572 15.4992 11.5878 15.4223L7.54398 14.2669Z" fill="black"/>
</svg>
