<svg width="24" height="24" viewBox="0 0 24 24" fill="none" xmlns="http://www.w3.org/2000/svg">
<path fill-rule="evenodd" clip-rule="evenodd" d="M5.60484 1.58138C5.97183 1.42351 6.39756 1.49922 6.68762 1.77392L6.69026 1.77641L6.70079 1.78632L6.74445 1.82709C6.78316 1.86309 6.84042 1.91596 6.91276 1.98172C7.05768 2.11347 7.26184 2.29578 7.49778 2.49718C7.98149 2.91006 8.55507 3.36529 9.01662 3.64378C10.5238 4.55314 12.9009 4.81386 15.0652 4.79801C16.118 4.7903 17.0673 4.71837 17.7536 4.64818C18.0961 4.61315 18.3715 4.57871 18.5596 4.5533C18.6536 4.54061 18.7257 4.53017 18.7734 4.52307L18.8262 4.51505L18.8382 4.51316L18.8403 4.51282C19.1921 4.45602 19.5479 4.59068 19.7737 4.86639C19.9995 5.14218 20.0615 5.51734 19.9363 5.85112L18.6097 9.38875L20.848 12.97C21.0225 13.2492 21.0484 13.5964 20.9172 13.8983C20.7861 14.2003 20.5147 14.4184 20.1916 14.4815C14.9234 15.5097 11.7376 14.7997 7 13.5397V21.5C7 22.0523 6.55228 22.5 6 22.5C5.44772 22.5 5 22.0523 5 21.5V2.49999C5 2.10045 5.23782 1.73926 5.60484 1.58138ZM15.0799 6.79796C15.9864 6.79132 16.8178 6.74052 17.4887 6.68212L16.5637 9.14887C16.4544 9.44032 16.487 9.76604 16.652 10.03L18.3603 12.7633C14.2277 13.3458 11.4805 12.6668 7 11.4697V4.67071C7.32259 4.91954 7.66236 5.16251 7.98338 5.35621C10.003 6.57481 12.8759 6.8141 15.0799 6.79796Z" fill="black"/>
</svg>
