<svg width="24" height="24" viewBox="0 0 24 24" fill="none" xmlns="http://www.w3.org/2000/svg">
<path d="M20.9049 3.00362C10.6329 3.4147 5.90591 12.7611 4.4094 18.9088C4.27991 19.4407 4.26417 20.1699 4.80071 20.2789C5.14549 20.3489 5.52893 20.132 5.68576 19.604C6.86746 15.6251 8.00085 10.6267 12.5009 12.5C13.9724 13.2358 16.4062 11.5656 14.61 8.66963C14.5666 8.59972 14.6173 8.5061 14.6995 8.50998C17.8065 8.65657 21.4463 8.38876 21.0092 3.09672C21.0049 3.04385 20.9579 3.0015 20.9049 3.00362Z" fill="black"/>
<path d="M3.61272 6.64978C3.45236 6.1687 3.07485 5.7912 2.59377 5.63084C2.10416 5.46763 2.10416 4.77509 2.59377 4.61189C3.07485 4.45153 3.45236 4.07402 3.61272 3.59294C3.77592 3.10333 4.46846 3.10333 4.63166 3.59294C4.79203 4.07402 5.16953 4.45153 5.65061 4.61189C6.14022 4.77509 6.14022 5.46763 5.65061 5.63084C5.16953 5.7912 4.79203 6.1687 4.63166 6.64978C4.46846 7.13939 3.77592 7.13939 3.61272 6.64978Z" fill="black"/>
<path d="M12.5937 18.6308C13.0748 18.7912 13.4523 19.1687 13.6127 19.6498C13.7759 20.1394 14.4684 20.1394 14.6316 19.6498C14.792 19.1687 15.1695 18.7912 15.6506 18.6308C16.1402 18.4676 16.1402 17.7751 15.6506 17.6119C15.1695 17.4515 14.792 17.074 14.6316 16.5929C14.4684 16.1033 13.7759 16.1033 13.6127 16.5929C13.4523 17.074 13.0748 17.4515 12.5937 17.6119C12.1041 17.7751 12.1041 18.4676 12.5937 18.6308Z" fill="black"/>
</svg>
