<svg width="24" height="24" viewBox="0 0 24 24" fill="none" xmlns="http://www.w3.org/2000/svg">
<path d="M7 2.5C7 1.94772 6.55228 1.5 6 1.5C5.44772 1.5 5 1.94772 5 2.5V21.5C5 22.0523 5.44772 22.5 6 22.5C6.55228 22.5 7 22.0523 7 21.5V12.5048C11.3834 13.6738 14.2679 14.36 18.5662 13.7439C19.2603 13.6444 19.601 12.8617 19.2294 12.2671L17.5 9.5L18.395 7.11345C18.6646 6.39452 18.0539 5.63178 17.2887 5.69554C14.9945 5.88671 10.9295 5.96589 8.5 4.5C8.01837 4.2094 7.46408 3.77546 7 3.38597V2.5Z" fill="black"/>
</svg>
