<svg width="24" height="24" viewBox="0 0 24 24" fill="none" xmlns="http://www.w3.org/2000/svg">
<path d="M11.0009 14C11.0009 12.3432 12.344 11 14.0009 11C15.6577 11 17.0009 12.3432 17.0009 14C17.0009 15.6569 15.6577 17 14.0009 17C12.344 17 11.0009 15.6569 11.0009 14Z" fill="black"/>
<path fill-rule="evenodd" clip-rule="evenodd" d="M15.5028 6.58565C14.6654 5.80481 13.3363 5.80481 12.4989 6.58565C12.02 7.03217 11.3541 7.2407 10.6944 7.15076C9.54074 6.99348 8.46553 7.74642 8.26422 8.85257C8.1491 9.48512 7.73756 10.0311 7.14898 10.3321C6.11972 10.8584 5.70903 12.0767 6.22073 13.0856C6.51334 13.6626 6.51334 14.3374 6.22073 14.9144C5.70903 15.9233 6.11972 17.1416 7.14898 17.668C7.73756 17.969 8.1491 18.5149 8.26422 19.1475C8.46553 20.2536 9.54074 21.0066 10.6944 20.8493C11.3541 20.7593 12.02 20.9679 12.4989 21.4144C13.3363 22.1952 14.6654 22.1952 15.5028 21.4144C15.9817 20.9679 16.6476 20.7593 17.3073 20.8493C18.461 21.0066 19.5362 20.2536 19.7375 19.1475C19.8526 18.5149 20.2641 17.969 20.8527 17.668C21.882 17.1416 22.2927 15.9233 21.781 14.9144C21.4884 14.3374 21.4884 13.6626 21.781 13.0856C22.2927 12.0767 21.882 10.8584 20.8527 10.3321C20.2641 10.0311 19.8526 9.48512 19.7375 8.85257C19.5362 7.74642 18.461 6.99348 17.3073 7.15076C16.6476 7.2407 15.9817 7.03217 15.5028 6.58565ZM14.0009 9.00002C11.2394 9.00002 9.00085 11.2386 9.00085 14C9.00085 16.7614 11.2394 19 14.0009 19C16.7623 19 19.0009 16.7614 19.0009 14C19.0009 11.2386 16.7623 9.00002 14.0009 9.00002Z" fill="black"/>
<path d="M3.61272 9.64976C3.45236 9.16868 3.07485 8.79117 2.59377 8.63081C2.10416 8.46761 2.10416 7.77507 2.59377 7.61186C3.07485 7.4515 3.45236 7.074 3.61272 6.59292C3.77592 6.10331 4.46846 6.10331 4.63166 6.59292C4.79203 7.074 5.16953 7.4515 5.65061 7.61186C6.14022 7.77507 6.14022 8.46761 5.65061 8.63081C5.16953 8.79117 4.79203 9.16868 4.63166 9.64976C4.46846 10.1394 3.77592 10.1394 3.61272 9.64976Z" fill="black"/>
<path d="M7.61272 5.64976C7.45236 5.16868 7.07485 4.79117 6.59377 4.63081C6.10416 4.46761 6.10416 3.77507 6.59377 3.61186C7.07485 3.4515 7.45236 3.074 7.61272 2.59292C7.77592 2.10331 8.46846 2.10331 8.63166 2.59292C8.79203 3.074 9.16953 3.4515 9.65061 3.61186C10.1402 3.77507 10.1402 4.46761 9.65061 4.63081C9.16953 4.79117 8.79203 5.16868 8.63166 5.64976C8.46846 6.13937 7.77592 6.13937 7.61272 5.64976Z" fill="black"/>
</svg>
