<svg width="24" height="24" viewBox="0 0 24 24" fill="none" xmlns="http://www.w3.org/2000/svg">
<path d="M6.59377 4.63081C7.07485 4.79117 7.45236 5.16868 7.61272 5.64976C7.77592 6.13937 8.46846 6.13937 8.63166 5.64976C8.79203 5.16868 9.16953 4.79117 9.65061 4.63081C10.1402 4.46761 10.1402 3.77507 9.65061 3.61186C9.16953 3.4515 8.79203 3.074 8.63166 2.59292C8.46846 2.10331 7.77592 2.10331 7.61272 2.59292C7.45236 3.074 7.07485 3.4515 6.59377 3.61186C6.10416 3.77507 6.10416 4.46761 6.59377 4.63081Z" fill="black"/>
<path fill-rule="evenodd" clip-rule="evenodd" d="M14.0009 9.00002C11.2394 9.00002 9.00085 11.2386 9.00085 14C9.00085 16.7614 11.2394 19 14.0009 19C16.7623 19 19.0009 16.7614 19.0009 14C19.0009 11.2386 16.7623 9.00002 14.0009 9.00002ZM11.0009 14C11.0009 12.3432 12.344 11 14.0009 11C15.6577 11 17.0009 12.3432 17.0009 14C17.0009 15.6569 15.6577 17 14.0009 17C12.344 17 11.0009 15.6569 11.0009 14Z" fill="black"/>
<path fill-rule="evenodd" clip-rule="evenodd" d="M16.1848 5.85426C14.9632 4.71527 13.0385 4.71527 11.8169 5.85426C11.5619 6.09205 11.1976 6.21011 10.8295 6.15993C9.1766 5.93459 7.58296 7.01094 7.28038 8.67352C7.22285 8.9896 7.01408 9.27787 6.69368 9.44172C5.19204 10.2096 4.55882 12.0196 5.32887 13.538C5.47729 13.8306 5.47729 14.1694 5.32887 14.4621C4.55882 15.9804 5.19204 17.7904 6.69368 18.5583C7.01408 18.7222 7.22285 19.0104 7.28038 19.3265C7.58296 20.9891 9.1766 22.0654 10.8295 21.8401C11.1976 21.7899 11.5619 21.908 11.8169 22.1458C13.0385 23.2848 14.9632 23.2848 16.1848 22.1458C16.4398 21.908 16.8041 21.7899 17.1722 21.8401C18.8251 22.0654 20.4188 20.9891 20.7213 19.3265C20.7789 19.0104 20.9876 18.7222 21.308 18.5583C22.8097 17.7904 23.4429 15.9804 22.6728 14.4621C22.5244 14.1694 22.5244 13.8306 22.6728 13.538C23.4429 12.0196 22.8097 10.2096 21.308 9.44172C20.9876 9.27787 20.7789 8.9896 20.7213 8.67352C20.4188 7.01094 18.8251 5.93459 17.1722 6.15993C16.8041 6.21011 16.4398 6.09205 16.1848 5.85426ZM13.1809 7.31704C13.6342 6.89434 14.3675 6.89434 14.8208 7.31704C15.5236 7.97229 16.491 8.2713 17.4424 8.1416C18.0968 8.05237 18.6536 8.4819 18.7537 9.03163C18.9264 9.98063 19.5407 10.7843 20.3974 11.2224C20.9543 11.5072 21.1425 12.1338 20.8891 12.6333C20.4523 13.4946 20.4523 14.5054 20.8891 15.3667C21.1425 15.8663 20.9543 16.4929 20.3974 16.7776C19.5407 17.2158 18.9264 18.0194 18.7537 18.9684C18.6536 19.5181 18.0968 19.9477 17.4424 19.8584C16.491 19.7287 15.5236 20.0277 14.8208 20.683C14.3675 21.1057 13.6342 21.1057 13.1809 20.683C12.4781 20.0277 11.5107 19.7287 10.5593 19.8584C9.90488 19.9477 9.3481 19.5181 9.24805 18.9684C9.07534 18.0194 8.46105 17.2158 7.60429 16.7776C7.0474 16.4929 6.85923 15.8663 7.11258 15.3667C7.54939 14.5054 7.54939 13.4946 7.11258 12.6333C6.85923 12.1338 7.0474 11.5072 7.60429 11.2224C8.46105 10.7843 9.07534 9.98063 9.24805 9.03163C9.3481 8.4819 9.90488 8.05237 10.5593 8.1416C11.5107 8.2713 12.4781 7.97229 13.1809 7.31704Z" fill="black"/>
<path d="M3.61272 9.64976C3.45236 9.16868 3.07485 8.79117 2.59377 8.63081C2.10416 8.46761 2.10416 7.77507 2.59377 7.61186C3.07485 7.4515 3.45236 7.074 3.61272 6.59292C3.77592 6.10331 4.46846 6.10331 4.63166 6.59292C4.79203 7.074 5.16953 7.4515 5.65061 7.61186C6.14022 7.77507 6.14022 8.46761 5.65061 8.63081C5.16953 8.79117 4.79203 9.16868 4.63166 9.64976C4.46846 10.1394 3.77592 10.1394 3.61272 9.64976Z" fill="black"/>
</svg>
