<svg width="24" height="24" viewBox="0 0 24 24" fill="none" xmlns="http://www.w3.org/2000/svg">
<path d="M10.2803 3.20426L3.40269 8.01856C2.53372 8.62684 2.05056 9.64877 2.13191 10.7064L2.83693 19.8716C2.92557 21.024 3.96971 21.8616 5.11388 21.6981L8.28349 21.2453C9.26879 21.1045 10.0006 20.2607 10.0006 19.2654V18C10.0006 16.8954 10.8961 16 12.0006 16C13.1052 16 14.0006 16.8954 14.0006 18V19.2654C14.0006 20.2607 14.7325 21.1045 15.7178 21.2453L18.8874 21.6981C20.0316 21.8616 21.0757 21.024 21.1644 19.8716L21.8694 10.7064C21.9507 9.64877 21.4676 8.62684 20.5986 8.01857L13.721 3.20426C12.6881 2.48119 11.3132 2.48119 10.2803 3.20426Z" fill="black"/>
</svg>
