<svg width="24" height="24" viewBox="0 0 24 24" fill="none" xmlns="http://www.w3.org/2000/svg">
<path fill-rule="evenodd" clip-rule="evenodd" d="M14.2945 2.38503C12.9172 1.42093 11.0841 1.42093 9.70681 2.38503L2.82923 7.19933C1.67061 8.01036 1.02639 9.37294 1.13486 10.783L1.83988 19.9483C1.97285 21.6769 3.53905 22.9332 5.25531 22.688L8.42492 22.2352C9.90287 22.0241 11.0007 20.7583 11.0007 19.2654V18C11.0007 17.4477 11.4484 17 12.0007 17C12.5529 17 13.0007 17.4477 13.0007 18V19.2654C13.0007 20.7583 14.0984 22.0241 15.5764 22.2352L18.746 22.688C20.4623 22.9332 22.0285 21.6769 22.1614 19.9483L22.8665 10.783C22.9749 9.37294 22.3307 8.01037 21.1721 7.19933L14.2945 2.38503ZM10.8537 4.02349C11.5424 3.54144 12.4589 3.54144 13.1476 4.02349L20.0252 8.8378C20.6045 9.24331 20.9266 9.9246 20.8723 10.6297L20.1673 19.7949C20.123 20.3711 19.6009 20.7899 19.0289 20.7081L15.8592 20.2553C15.3666 20.185 15.0007 19.763 15.0007 19.2654V18C15.0007 16.3431 13.6575 15 12.0007 15C10.3438 15 9.00066 16.3431 9.00066 18V19.2654C9.00066 19.7631 8.63473 20.185 8.14208 20.2553L4.97246 20.7081C4.40038 20.7899 3.87831 20.3711 3.83399 19.7949L3.12897 10.6297C3.07474 9.9246 3.39685 9.24331 3.97616 8.8378L10.8537 4.02349Z" fill="black"/>
</svg>
