<svg width="24" height="24" viewBox="0 0 24 24" fill="none" xmlns="http://www.w3.org/2000/svg">
<path fill-rule="evenodd" clip-rule="evenodd" d="M10.5004 4.87702C11.1273 3.70766 12.8722 3.70766 13.4991 4.87702L19.8102 16.6501C20.3643 17.6837 19.6176 19 18.3109 19H5.68859C4.38189 19 3.63523 17.6837 4.18927 16.6501L10.5004 4.87702ZM14.3804 4.40456L15.2618 3.93209C13.8808 1.35597 10.1187 1.35597 8.73773 3.9321L2.42657 15.7052C1.11516 18.1516 2.96246 21 5.68859 21H18.3109C21.037 21 22.8843 18.1516 21.5729 15.7052L15.2618 3.93209L14.3804 4.40456ZM11.9998 6C12.552 6 12.9998 6.44772 12.9998 7V14C12.9998 14.5523 12.552 15 11.9998 15C11.4475 15 10.9998 14.5523 10.9998 14V7C10.9998 6.44772 11.4475 6 11.9998 6ZM11.9997 18C11.3094 18 10.7497 17.4404 10.7497 16.75C10.7497 16.0596 11.3094 15.5 11.9997 15.5C12.6901 15.5 13.2497 16.0596 13.2497 16.75C13.2497 17.4404 12.6901 18 11.9997 18Z" fill="black"/>
</svg>
