<svg width="24" height="24" viewBox="0 0 24 24" fill="none" xmlns="http://www.w3.org/2000/svg">
<path fill-rule="evenodd" clip-rule="evenodd" d="M10.494 1.87321C11.4249 1.3332 12.5737 1.3332 13.5046 1.87321L16.7568 3.75975L20.0167 5.63295C20.9498 6.16913 21.5242 7.16405 21.522 8.24025L21.5143 12L21.522 15.7597C21.5242 16.8359 20.9498 17.8308 20.0167 18.367L16.7568 20.2402L13.5046 22.1268C12.5737 22.6668 11.4249 22.6668 10.494 22.1268L7.24178 20.2402L3.98189 18.367C3.04878 17.8308 2.47436 16.8359 2.47657 15.7597L2.48428 12L2.47657 8.24024C2.47436 7.16405 3.04878 6.16913 3.98189 5.63295L7.24178 3.75975L10.494 1.87321ZM11.9993 5.99999C12.5516 5.99999 12.9993 6.4477 12.9993 6.99999V14C12.9993 14.5523 12.5516 15 11.9993 15C11.447 15 10.9993 14.5523 10.9993 14V6.99999C10.9993 6.4477 11.447 5.99999 11.9993 5.99999ZM10.7493 16.75C10.7493 17.4403 11.3089 18 11.9993 18C12.6896 18 13.2493 17.4403 13.2493 16.75C13.2493 16.0596 12.6896 15.5 11.9993 15.5C11.3089 15.5 10.7493 16.0596 10.7493 16.75Z" fill="black"/>
</svg>
