<svg width="24" height="24" viewBox="0 0 24 24" fill="none" xmlns="http://www.w3.org/2000/svg">
<path d="M8.23999 7.18012L5.49663 4.43676C9.22701 1.22266 14.7714 1.22266 18.5018 4.43676L15.7585 7.18012C13.5554 5.45743 10.443 5.45743 8.23999 7.18012Z" fill="black"/>
<path d="M16.8191 8.24078L19.5625 5.49742C22.7766 9.2278 22.7766 14.7722 19.5625 18.5026L16.8191 15.7592C18.5418 13.5562 18.5418 10.4438 16.8191 8.24078Z" fill="black"/>
<path d="M15.7585 16.8199L18.5018 19.5633C14.7714 22.7774 9.22701 22.7774 5.49663 19.5633L8.23999 16.8199C10.443 18.5426 13.5554 18.5426 15.7585 16.8199Z" fill="black"/>
<path d="M7.17933 15.7592L4.43597 18.5026C1.22186 14.7722 1.22186 9.2278 4.43597 5.49742L7.17933 8.24078C5.45663 10.4438 5.45663 13.5562 7.17933 15.7592Z" fill="black"/>
<path d="M8.73811 8.7389C10.5392 6.93783 13.4593 6.93783 15.2603 8.7389C17.0614 10.54 17.0614 13.4601 15.2603 15.2611C13.4593 17.0622 10.5392 17.0622 8.73811 15.2611C6.93704 13.4601 6.93704 10.54 8.73811 8.7389Z" fill="black"/>
</svg>
