<svg width="24" height="24" viewBox="0 0 24 24" fill="none" xmlns="http://www.w3.org/2000/svg">
<path fill-rule="evenodd" clip-rule="evenodd" d="M8.52313 7.10891L6.38199 4.96777C9.65785 2.34408 14.3422 2.34408 17.618 4.96777L15.4769 7.10891C13.4022 5.63036 10.5978 5.63036 8.52313 7.10891ZM16.8911 8.52313L19.0322 6.38199C21.6559 9.65785 21.6559 14.3422 19.0322 17.618L16.8911 15.4769C18.3696 13.4022 18.3696 10.5978 16.8911 8.52313ZM15.4769 16.8911L17.618 19.0322C14.3422 21.6559 9.65785 21.6559 6.38199 19.0322L8.52313 16.8911C10.5978 18.3696 13.4022 18.3696 15.4769 16.8911ZM7.10891 15.4769L4.96777 17.618C2.34408 14.3422 2.34408 9.65785 4.96777 6.38199L7.10891 8.52313C5.63036 10.5978 5.63036 13.4022 7.10891 15.4769ZM19.7782 4.22183C15.4824 -0.0739417 8.51759 -0.0739417 4.22183 4.22183C-0.0739417 8.51759 -0.0739417 15.4824 4.22183 19.7782C8.51759 24.0739 15.4824 24.0739 19.7782 19.7782C24.0739 15.4824 24.0739 8.51759 19.7782 4.22183ZM9.17157 9.17157C10.7337 7.60948 13.2663 7.60948 14.8284 9.17157C16.3905 10.7337 16.3905 13.2663 14.8284 14.8284C13.2663 16.3905 10.7337 16.3905 9.17157 14.8284C7.60948 13.2663 7.60948 10.7337 9.17157 9.17157Z" fill="black"/>
</svg>
