<svg width="24" height="24" viewBox="0 0 24 24" fill="none" xmlns="http://www.w3.org/2000/svg">
<path d="M20.7603 19.2404L21.3425 18.6582C21.7134 18.2872 21.7346 17.6926 21.391 17.2962L12.086 6.55955L10.208 8.43758C10.1666 8.47891 10.1226 8.51587 10.0764 8.54846L19.2975 19.1882C19.6776 19.6268 20.3499 19.6507 20.7603 19.2404Z" fill="black"/>
<path d="M10.7728 5.04432L8.79375 7.02336C8.78673 7.03038 8.77984 7.03748 8.77307 7.04465L7.61068 5.70343C7.26707 5.30696 7.28828 4.71237 7.65926 4.34139L8.24145 3.75921C8.65181 3.34884 9.32416 3.37282 9.70424 3.81138L10.7728 5.04432Z" fill="black"/>
<path d="M3.61272 8.64974C3.45236 8.16866 3.07485 7.79115 2.59377 7.63079C2.10416 7.46759 2.10416 6.77505 2.59377 6.61185C3.07485 6.45149 3.45236 6.07398 3.61272 5.5929C3.77592 5.10329 4.46846 5.10329 4.63166 5.5929C4.79203 6.07398 5.16953 6.45149 5.65061 6.61185C6.14022 6.77505 6.14022 7.46759 5.65061 7.63079C5.16953 7.79115 4.79203 8.16866 4.63166 8.64974C4.46846 9.13935 3.77592 9.13935 3.61272 8.64974Z" fill="black"/>
<path d="M7.61272 15.6497C7.45236 15.1687 7.07485 14.7912 6.59377 14.6308C6.10416 14.4676 6.10416 13.7751 6.59377 13.6118C7.07485 13.4515 7.45236 13.074 7.61272 12.5929C7.77592 12.1033 8.46846 12.1033 8.63166 12.5929C8.79203 13.074 9.16953 13.4515 9.65061 13.6118C10.1402 13.7751 10.1402 14.4676 9.65061 14.6308C9.16953 14.7912 8.79203 15.1687 8.63166 15.6497C8.46846 16.1394 7.77592 16.1394 7.61272 15.6497Z" fill="black"/>
</svg>
