<svg width="24" height="24" viewBox="0 0 24 24" fill="none" xmlns="http://www.w3.org/2000/svg">
<path fill-rule="evenodd" clip-rule="evenodd" d="M8.176 4C7.81283 4 7.47821 4.19689 7.30184 4.51436L3.41295 11.5144C3.24516 11.8164 3.24516 12.1836 3.41295 12.4856L5.87981 16.926L8.33471 13.4163C9.22088 12.1494 10.9248 11.7634 12.2704 12.5248C12.2816 12.5311 12.2927 12.5377 12.3037 12.5445L12.5785 12.7143L13.0588 12.0282C13.9937 10.6926 15.8241 10.3481 17.1806 11.2524L17.1855 11.2557L20.1548 13.2608L20.5854 12.4856C20.7532 12.1836 20.7532 11.8164 20.5854 11.5144L20.4142 11.2061C20.1459 10.7233 20.3199 10.1145 20.8027 9.84626C21.2855 9.57805 21.8943 9.75199 22.1625 10.2348L22.3337 10.5431C22.8371 11.4491 22.8371 12.5509 22.3337 13.4569L18.4449 20.4569C17.9841 21.2862 17.1634 21.8413 16.2397 21.9709C16.1626 21.9899 16.0821 22 15.9992 22H7.9003C7.77056 22 7.64659 21.9753 7.53284 21.9303C6.70228 21.748 5.97633 21.218 5.55353 20.4569L5.13387 19.7015C5.12748 19.6905 5.1213 19.6794 5.11532 19.6682L1.66464 13.4569C1.16127 12.5509 1.16127 11.4491 1.66464 10.5431L5.55353 3.54307C6.08263 2.59068 7.0865 2 8.176 2H16.216C17.0747 2 17.8598 2.4852 18.2439 3.25332C18.4909 3.7473 18.2907 4.34798 17.7967 4.59497C17.3027 4.84195 16.702 4.64173 16.455 4.14775C16.4098 4.0572 16.3172 4 16.216 4H8.176ZM7.02023 18.9787L7.30184 19.4856C7.47821 19.8031 7.81283 20 8.176 20H9.01135C8.70505 19.142 8.77982 18.141 9.38281 17.2796L11.4297 14.3555L11.2714 14.2577C10.8252 14.0144 10.2659 14.1447 9.97359 14.5626L7.1619 18.5824C7.10687 18.6611 7.04998 18.8137 7.02023 18.9787ZM11.0213 18.4265C10.5573 19.0893 11.0315 20 11.8405 20H15.8224C16.1856 20 16.5202 19.8031 16.6965 19.4856L19.1798 15.0157L16.0712 12.9165L16.0692 12.9152C15.6172 12.6154 15.0084 12.7306 14.6973 13.1751L11.0213 18.4265Z" fill="black"/>
<path d="M7.20102 9.81722C7.04066 9.33614 6.66316 8.95863 6.18207 8.79827C5.69246 8.63507 5.69246 7.94253 6.18207 7.77933C6.66316 7.61897 7.04066 7.24146 7.20102 6.76038C7.36422 6.27077 8.05677 6.27077 8.21997 6.76038C8.38033 7.24146 8.75783 7.61897 9.23892 7.77933C9.72853 7.94253 9.72853 8.63507 9.23892 8.79827C8.75783 8.95863 8.38033 9.33614 8.21997 9.81722C8.05677 10.3068 7.36422 10.3068 7.20102 9.81722Z" fill="black"/>
<path d="M20.9992 4C20.9992 3.44772 20.5515 3 19.9992 3C19.4469 3 18.9992 3.44772 18.9992 4V5H17.9992C17.4469 5 16.9992 5.44772 16.9992 6C16.9992 6.55228 17.4469 7 17.9992 7H18.9992V8C18.9992 8.55228 19.4469 9 19.9992 9C20.5515 9 20.9992 8.55228 20.9992 8V7H21.9992C22.5515 7 22.9992 6.55228 22.9992 6C22.9992 5.44772 22.5515 5 21.9992 5H20.9992V4Z" fill="black"/>
</svg>
