<svg width="24" height="24" viewBox="0 0 24 24" fill="none" xmlns="http://www.w3.org/2000/svg">
<path d="M5 4.8999H15C16.6569 4.8999 18 6.24305 18 7.8999V11.2659C17.9181 11.2554 17.8347 11.25 17.75 11.25C16.6761 11.25 15.8056 12.1206 15.8056 13.1944V14.45C14.9464 14.45 14.25 15.1464 14.25 16.0056V17.6999H11.25V18.6H12.5C13.0523 18.6 13.5 19.0477 13.5 19.6C13.5 20.1522 13.0523 20.6 12.5 20.6H8C7.44772 20.6 7 20.1522 7 19.6C7 19.0477 7.44772 18.6 8 18.6H9.25005V17.6999H5C3.34315 17.6999 2 16.3568 2 14.6999V7.89991C2 6.24305 3.34315 4.8999 5 4.8999Z" fill="black"/>
<path fill-rule="evenodd" clip-rule="evenodd" d="M15 18.6667V16.3222C15 15.4631 15.6964 14.7667 16.5556 14.7667V13.9444C16.5556 12.8706 17.4261 12 18.5 12C19.5739 12 20.4444 12.8706 20.4444 13.9444V14.7667C21.3036 14.7667 22 15.4631 22 16.3222V18.6667C22 19.219 21.5523 19.6667 21 19.6667H16C15.4477 19.6667 15 19.219 15 18.6667ZM18.5 13.25C18.7761 13.25 19 13.4739 19 13.75V14.65H18V13.75C18 13.4739 18.2239 13.25 18.5 13.25Z" fill="black"/>
</svg>
