<svg width="24" height="24" viewBox="0 0 24 24" fill="none" xmlns="http://www.w3.org/2000/svg">
<path d="M15.25 4.3999H5.25C3.59315 4.3999 2.25 5.74305 2.25 7.39991V14.1999C2.25 15.8568 3.59315 17.1999 5.25 17.1999H9.25005C9.25005 17.1999 9.25005 17.1999 9.25005 17.1999V18.6H8C7.44772 18.6 7 19.0477 7 19.6C7 20.1522 7.44772 20.6 8 20.6H12.5C13.0523 20.6 13.5 20.1522 13.5 19.6C13.5 19.0477 13.0523 18.6 12.5 18.6H11.25V17.2C11.25 17.1999 11.25 17.2 11.25 17.2L13.4188 17.1999L13.6912 11.8723C13.7592 10.543 14.8568 9.5 16.1879 9.5H18.25V7.3999C18.25 5.74305 16.9069 4.3999 15.25 4.3999Z" fill="black"/>
<path fill-rule="evenodd" clip-rule="evenodd" d="M19.5975 10.25H16.4025C15.3368 10.25 14.4582 11.0857 14.405 12.1501L14.105 18.1501C14.0479 19.2925 14.9587 20.25 16.1025 20.25H19.8975C21.0413 20.25 21.9521 19.2925 21.895 18.1501L21.595 12.1501C21.5418 11.0857 20.6632 10.25 19.5975 10.25ZM19.25 13.5C19.25 14.1904 18.6904 14.75 18 14.75C17.3097 14.75 16.75 14.1904 16.75 13.5C16.75 12.8096 17.3097 12.25 18 12.25C18.6904 12.25 19.25 12.8096 19.25 13.5ZM18 18.25C18.6904 18.25 19.25 17.6904 19.25 17C19.25 16.3096 18.6904 15.75 18 15.75C17.3097 15.75 16.75 16.3096 16.75 17C16.75 17.6904 17.3097 18.25 18 18.25Z" fill="black"/>
</svg>
