<svg width="24" height="24" viewBox="0 0 24 24" fill="none" xmlns="http://www.w3.org/2000/svg">
<path fill-rule="evenodd" clip-rule="evenodd" d="M5.25 3.3999C3.04086 3.3999 1.25 5.19077 1.25 7.39991V14.1999C1.25 16.409 3.04086 18.1999 5.25 18.1999H9.25001V18.5999H7.49997C6.94768 18.5999 6.49997 19.0476 6.49997 19.5999C6.49997 20.1522 6.94768 20.5999 7.49997 20.5999H13C13.5522 20.5999 14 20.1522 14 19.5999C14 19.0476 13.5522 18.5999 13 18.5999H11.25V18.1999H14.1516C14.0621 18.3892 14.0029 18.604 14.0001 18.8402C13.9958 19.208 14.1296 19.5187 14.3049 19.7541C14.6199 20.177 15.1094 20.4171 15.4808 20.5593C16.2724 20.8625 17.2934 21 18 21C18.7066 21 19.7276 20.8625 20.5192 20.5593C20.8906 20.4171 21.3801 20.177 21.6951 19.7541C21.8704 19.5187 22.0042 19.208 21.9999 18.8402C21.9957 18.479 21.8595 18.168 21.6847 17.9216C21.1125 17.1145 20.0678 16.315 18.7847 16.0735C18.8092 16.0275 18.8327 15.981 18.8554 15.9339C18.866 15.9119 18.8757 15.8898 18.8845 15.8675C20.1096 15.49 21 14.349 21 13C21 11.7893 20.2828 10.746 19.25 10.272V7.3999C19.25 5.19076 17.4591 3.3999 15.25 3.3999H5.25ZM15 13C15 14.1573 15.6553 15.1615 16.615 15.6619C16.2571 15.9962 15.7769 16.1999 15.25 16.1999H5.25C4.14543 16.1999 3.25 15.3045 3.25 14.1999V7.39991C3.25 6.29533 4.14543 5.3999 5.25 5.3999H15.25C16.3546 5.3999 17.25 6.29533 17.25 7.3999V10.0945C15.9561 10.4275 15 11.6021 15 13ZM18 12C17.4477 12 17 12.4477 17 13C17 13.5523 17.4477 14 18 14C18.5523 14 19 13.5523 19 13C19 12.4477 18.5523 12 18 12ZM16.2671 18.7177C16.7782 18.898 17.5014 19 18 19C18.4986 19 19.2218 18.898 19.7329 18.7177C19.305 18.3221 18.675 18 18 18C17.325 18 16.695 18.3221 16.2671 18.7177Z" fill="black"/>
</svg>
