<svg width="24" height="24" viewBox="0 0 24 24" fill="none" xmlns="http://www.w3.org/2000/svg">
<path fill-rule="evenodd" clip-rule="evenodd" d="M1.25 7.39991C1.25 5.19077 3.04086 3.3999 5.25 3.3999H15.25C17.4591 3.3999 19.25 5.19076 19.25 7.3999V11C19.25 11.1003 19.2352 11.1972 19.2077 11.2885C20.0736 11.7291 20.6667 12.6286 20.6667 13.6667V14.0245C21.455 14.399 22 15.2025 22 16.1333V18C22 19.1046 21.1046 20 20 20H16C14.9629 20 14.1101 19.2106 14.0099 18.1999C14.0066 18.1999 14.0033 18.1999 14 18.1999H11.25V18.6H12.5C13.0523 18.6 13.5 19.0477 13.5 19.6C13.5 20.1522 13.0523 20.6 12.5 20.6H8C7.44772 20.6 7 20.1522 7 19.6C7 19.0477 7.44772 18.6 8 18.6H9.25005V18.1999H5.25C3.04086 18.1999 1.25 16.409 1.25 14.1999V7.39991ZM14 16.1999V16.1333C14 15.2025 14.545 14.399 15.3333 14.0245V13.6667C15.3333 12.4523 16.145 11.4275 17.2555 11.1053C17.2519 11.0707 17.25 11.0356 17.25 11V7.3999C17.25 6.29533 16.3546 5.3999 15.25 5.3999H5.25C4.14543 5.3999 3.25 6.29533 3.25 7.39991V14.1999C3.25 15.3045 4.14543 16.1999 5.25 16.1999H14ZM17.3333 13.6667C17.3333 13.2985 17.6318 13 18 13C18.3682 13 18.6667 13.2985 18.6667 13.6667V13.8H17.3333V13.6667ZM16 16.1333C16 15.9492 16.1492 15.8 16.3333 15.8H19.6667C19.8508 15.8 20 15.9492 20 16.1333V18H16V16.1333Z" fill="black"/>
</svg>
