<svg width="24" height="24" viewBox="0 0 24 24" fill="none" xmlns="http://www.w3.org/2000/svg">
<path fill-rule="evenodd" clip-rule="evenodd" d="M16.25 13.5C16.25 12.5335 17.0335 11.75 18 11.75C18.9665 11.75 19.75 12.5335 19.75 13.5C19.75 14.4665 18.9665 15.25 18 15.25C17.0335 15.25 16.25 14.4665 16.25 13.5ZM18 13.75C18.1381 13.75 18.25 13.6381 18.25 13.5C18.25 13.3619 18.1381 13.25 18 13.25C17.8619 13.25 17.75 13.3619 17.75 13.5C17.75 13.6381 17.8619 13.75 18 13.75Z" fill="black"/>
<path fill-rule="evenodd" clip-rule="evenodd" d="M18 15.25C18.9665 15.25 19.75 16.0335 19.75 17C19.75 17.9665 18.9665 18.75 18 18.75C17.0335 18.75 16.25 17.9665 16.25 17C16.25 16.0335 17.0335 15.25 18 15.25ZM18.25 17C18.25 17.1381 18.1381 17.25 18 17.25C17.8619 17.25 17.75 17.1381 17.75 17C17.75 16.8619 17.8619 16.75 18 16.75C18.1381 16.75 18.25 16.8619 18.25 17Z" fill="black"/>
<path fill-rule="evenodd" clip-rule="evenodd" d="M1.25 7.39991C1.25 5.19077 3.04086 3.3999 5.25 3.3999H15.25C17.4591 3.3999 19.25 5.19076 19.25 7.3999V9.25H19.5975C21.1961 9.25 22.5139 10.5036 22.5938 12.1002L22.8938 18.1002C22.9794 19.8137 21.6132 21.25 19.8975 21.25H16.1025C14.9795 21.25 14.0062 20.6346 13.4918 19.7289C13.4285 20.2203 13.0086 20.6 12.5 20.6H8C7.44772 20.6 7 20.1522 7 19.6C7 19.0477 7.44772 18.6 8 18.6H9.25005V18.1999H5.25C3.04086 18.1999 1.25 16.409 1.25 14.1999V7.39991ZM13.1624 18.8508C13.1197 18.6407 13.099 18.4229 13.1029 18.1999H11.25V18.6H12.5C12.7541 18.6 12.986 18.6947 13.1624 18.8508ZM13.2013 16.1999L13.4062 12.1002C13.4861 10.5036 14.8039 9.25 16.4025 9.25H17.25V7.3999C17.25 6.29533 16.3546 5.3999 15.25 5.3999H5.25C4.14543 5.3999 3.25 6.29533 3.25 7.39991V14.1999C3.25 15.3045 4.14543 16.1999 5.25 16.1999H13.2013ZM15.4037 12.2001C15.4304 11.6679 15.8696 11.25 16.4025 11.25H19.5975C20.1304 11.25 20.5696 11.6679 20.5963 12.2001L20.8963 18.2001C20.9248 18.7712 20.4694 19.25 19.8975 19.25H16.1025C15.5306 19.25 15.0752 18.7712 15.1037 18.2001L15.4037 12.2001Z" fill="black"/>
</svg>
