<svg width="24" height="24" viewBox="0 0 24 24" fill="none" xmlns="http://www.w3.org/2000/svg">
<path d="M5.25 4.3999H15.25C16.9069 4.3999 18.25 5.74305 18.25 7.3999V10.0088C18.1674 10.003 18.0841 10 18 10C16.067 10 14.5 11.567 14.5 13.5C14.5 14.4621 14.8882 15.3335 15.5164 15.9661C15.0762 16.3351 14.7128 16.7706 14.4407 17.1999H11.25V18.5999C11.8023 18.5999 12.25 19.0476 12.25 19.5999C12.25 20.1522 11.8023 20.5999 11.25 20.5999H7.05001C6.49773 20.5999 6.05001 20.1522 6.05001 19.5999C6.05001 19.0476 6.49773 18.5999 7.05001 18.5999H9.25001V17.1999L5.25 17.1999C3.59315 17.1999 2.25 15.8568 2.25 14.1999V7.39991C2.25 5.74305 3.59315 4.3999 5.25 4.3999Z" fill="black"/>
<path fill-rule="evenodd" clip-rule="evenodd" d="M15.5 13.5C15.5 11.9812 16.7312 10.75 18.25 10.75C19.7688 10.75 21 11.9812 21 13.5C21 14.589 20.367 15.5302 19.4488 15.9756C20.3824 16.3347 21.102 17.0647 21.5018 17.7413C21.6471 17.9871 21.7468 18.2747 21.7499 18.5922C21.7531 18.9137 21.6562 19.1994 21.5105 19.4341C21.2407 19.8689 20.8073 20.1286 20.4689 20.2841C19.7685 20.606 18.8749 20.75 18.25 20.75C17.6251 20.75 16.7315 20.606 16.0311 20.2841C15.6927 20.1286 15.2593 19.8689 14.9895 19.4341C14.8438 19.1994 14.7469 18.9137 14.7501 18.5922C14.7532 18.2747 14.8529 17.9871 14.9982 17.7413C15.398 17.0647 16.1176 16.3347 17.0512 15.9756C16.133 15.5302 15.5 14.589 15.5 13.5ZM18.25 12.75C17.8358 12.75 17.5 13.0858 17.5 13.5C17.5 13.9142 17.8358 14.25 18.25 14.25C18.6642 14.25 19 13.9142 19 13.5C19 13.0858 18.6642 12.75 18.25 12.75ZM18.25 17.75C17.7696 17.75 17.2597 18.0589 16.9105 18.4865C17.2976 18.6524 17.8658 18.75 18.25 18.75C18.6342 18.75 19.2024 18.6524 19.5895 18.4865C19.2403 18.0589 18.7304 17.75 18.25 17.75Z" fill="black"/>
</svg>
