<svg width="24" height="24" viewBox="0 0 24 24" fill="none" xmlns="http://www.w3.org/2000/svg">
<path d="M16.5927 5.63081C17.0738 5.79117 17.4513 6.16868 17.6116 6.64976C17.7748 7.13937 18.4674 7.13937 18.6306 6.64976C18.7909 6.16868 19.1684 5.79117 19.6495 5.63081C20.1391 5.46761 20.1391 4.77507 19.6495 4.61186C19.1684 4.4515 18.7909 4.074 18.6306 3.59292C18.4674 3.10331 17.7748 3.10331 17.6116 3.59292C17.4513 4.074 17.0738 4.4515 16.5927 4.61186C16.1031 4.77507 16.1031 5.46761 16.5927 5.63081Z" fill="black"/>
<path d="M19.9599 10.6321L5.82069 4.2695C4.6781 3.75534 3.44605 4.78565 3.74993 6.00119L4.734 9.93746C4.89224 10.5705 5.44152 11.0285 6.09264 11.0705L20.4997 12L6.09264 12.9295C5.44152 12.9715 4.89224 13.4296 4.734 14.0626L3.74993 17.9989C3.44604 19.2144 4.6781 20.2447 5.82069 19.7306L19.9599 13.3679C21.1392 12.8372 21.1392 11.1628 19.9599 10.6321Z" fill="black"/>
<path d="M16.5927 5.63081C17.0738 5.79117 17.4513 6.16868 17.6116 6.64976C17.7748 7.13937 18.4674 7.13937 18.6306 6.64976C18.7909 6.16868 19.1684 5.79117 19.6495 5.63081C20.1391 5.46761 20.1391 4.77507 19.6495 4.61186C19.1684 4.4515 18.7909 4.074 18.6306 3.59292C18.4674 3.10331 17.7748 3.10331 17.6116 3.59292C17.4513 4.074 17.0738 4.4515 16.5927 4.61186C16.1031 4.77507 16.1031 5.46761 16.5927 5.63081Z" fill="black"/>
<path d="M19.9599 10.6321L5.82069 4.2695C4.6781 3.75534 3.44605 4.78565 3.74993 6.00119L4.734 9.93746C4.89224 10.5705 5.44152 11.0285 6.09264 11.0705L20.4997 12L6.09264 12.9295C5.44152 12.9715 4.89224 13.4296 4.734 14.0626L3.74993 17.9989C3.44604 19.2144 4.6781 20.2447 5.82069 19.7306L19.9599 13.3679C21.1392 12.8372 21.1392 11.1628 19.9599 10.6321Z" fill="black"/>
</svg>
