<svg width="24" height="24" viewBox="0 0 24 24" fill="none" xmlns="http://www.w3.org/2000/svg">
<path d="M10.5859 1.10046C10.0336 1.10046 9.58587 1.54818 9.58587 2.10046C9.58587 2.65275 10.0336 3.10046 10.5859 3.10046H12.4143L1.39348 14.1213C1.00295 14.5118 1.00295 15.145 1.39348 15.5355C1.784 15.926 2.41717 15.926 2.80769 15.5355L13.8285 4.51468V6.3431C13.8285 6.89539 14.2762 7.3431 14.8285 7.3431C15.3808 7.3431 15.8285 6.89539 15.8285 6.3431V2.10046C15.8285 1.54818 15.3808 1.10046 14.8285 1.10046H10.5859Z" fill="black"/>
<path d="M22.6067 9.87874C22.9972 9.48821 22.9972 8.85505 22.6067 8.46452C22.2162 8.074 21.583 8.074 21.1925 8.46452L10.1717 19.4853V17.6569C10.1717 17.1046 9.72395 16.6569 9.17166 16.6569C8.61938 16.6569 8.17166 17.1046 8.17166 17.6569V21.8996C8.17166 22.4518 8.61938 22.8996 9.17166 22.8996H13.4143C13.9666 22.8996 14.4143 22.4518 14.4143 21.8996C14.4143 21.3473 13.9666 20.8996 13.4143 20.8996H11.5859L22.6067 9.87874Z" fill="black"/>
</svg>
