<svg width="24" height="24" viewBox="0 0 24 24" fill="none" xmlns="http://www.w3.org/2000/svg">
<path fill-rule="evenodd" clip-rule="evenodd" d="M13.8067 2.74763C12.7994 1.77321 11.2009 1.77321 10.1937 2.74763C9.61766 3.30484 8.81676 3.56507 8.02326 3.45283C6.63563 3.25656 5.34239 4.19615 5.10026 5.57651C4.96179 6.36587 4.46681 7.04715 3.75888 7.42276C2.5209 8.0796 2.02693 9.5999 2.64239 10.859C2.99434 11.5789 2.99434 12.4211 2.64239 13.141C2.02693 14.4001 2.5209 15.9204 3.75888 16.5772C4.46681 16.9528 4.96179 17.6341 5.10026 18.4235C5.34239 19.8038 6.63563 20.7434 8.02326 20.5472C8.81676 20.4349 9.61766 20.6952 10.1937 21.2524C11.2009 22.2268 12.7994 22.2268 13.8067 21.2524C14.3827 20.6952 15.1836 20.4349 15.9771 20.5472C17.3647 20.7434 18.6579 19.8038 18.9001 18.4235C19.0385 17.6341 19.5335 16.9528 20.2415 16.5772C21.4794 15.9204 21.9734 14.4001 21.3579 13.141C21.006 12.4211 21.006 11.5789 21.3579 10.859C21.9734 9.5999 21.4794 8.0796 20.2415 7.42276C19.5335 7.04715 19.0385 6.36587 18.9001 5.57651C18.6579 4.19615 17.3647 3.25656 15.9771 3.45283C15.1836 3.56507 14.3827 3.30484 13.8067 2.74763ZM12.0002 17C14.7616 17 17.0002 14.7614 17.0002 12C17.0002 9.23858 14.7616 7 12.0002 7C9.23874 7 7.00017 9.23858 7.00017 12C7.00017 14.7614 9.23874 17 12.0002 17Z" fill="black"/>
</svg>
