<svg width="24" height="24" viewBox="0 0 24 24" fill="none" xmlns="http://www.w3.org/2000/svg">
<path d="M20.778 4.63606C21.1685 4.24554 21.1685 3.61237 20.778 3.22185C20.3874 2.83132 19.7543 2.83132 19.3637 3.22185L16.8282 5.75738V3.92896C16.8282 3.37667 16.3805 2.92896 15.8282 2.92896C15.2759 2.92896 14.8282 3.37667 14.8282 3.92896L14.8282 8.1716C14.8282 8.72388 15.2759 9.1716 15.8282 9.1716H20.0708C20.6231 9.1716 21.0708 8.72388 21.0708 8.1716C21.0708 7.61931 20.6231 7.1716 20.0708 7.1716H18.2424L20.778 4.63606Z" fill="black"/>
<path d="M9.17135 15.8285C9.17135 15.5632 9.066 15.3089 8.87846 15.1213C8.69092 14.9338 8.43657 14.8285 8.17135 14.8285L3.92871 14.8285C3.37643 14.8285 2.92871 15.2762 2.92871 15.8285C2.92871 16.3807 3.37643 16.8285 3.92871 16.8285L5.75714 16.8285L3.2216 19.364C2.83108 19.7545 2.83108 20.3877 3.2216 20.7782C3.61213 21.1687 4.24529 21.1687 4.63582 20.7782L7.17135 18.2427L7.17135 20.0711C7.17135 20.6234 7.61907 21.0711 8.17135 21.0711C8.72364 21.0711 9.17135 20.6234 9.17135 20.0711L9.17135 15.8285Z" fill="black"/>
<path d="M4.63584 3.22188C4.24531 2.83136 3.61215 2.83136 3.22162 3.22188C2.8311 3.61241 2.8311 4.24557 3.22162 4.6361L5.75716 7.17163H3.92873C3.37644 7.17163 2.92873 7.61935 2.92873 8.17163C2.92873 8.72392 3.37644 9.17163 3.92873 9.17163H8.17137C8.72365 9.17163 9.17137 8.72392 9.17137 8.17163V3.92899C9.17137 3.37671 8.72365 2.92899 8.17137 2.92899C7.61908 2.92899 7.17137 3.37671 7.17137 3.92899V5.75742L4.63584 3.22188Z" fill="black"/>
<path d="M15.8282 14.8285C15.563 14.8285 15.3087 14.9338 15.1211 15.1214C14.9336 15.3089 14.8282 15.5633 14.8282 15.8285L14.8282 20.0711C14.8282 20.6234 15.2759 21.0711 15.8282 21.0711C16.3805 21.0711 16.8282 20.6234 16.8282 20.0711L16.8282 18.2427L19.3638 20.7782C19.7543 21.1688 20.3874 21.1688 20.778 20.7782C21.1685 20.3877 21.1685 19.7545 20.778 19.364L18.2424 16.8285L20.0709 16.8285C20.6231 16.8285 21.0709 16.3808 21.0709 15.8285C21.0709 15.2762 20.6232 14.8285 20.0709 14.8285L15.8282 14.8285Z" fill="black"/>
</svg>
